<?xml version="1.0" encoding="utf-8"?>
<!-- Generator: Adobe Illustrator 27.5.0, SVG Export Plug-In . SVG Version: 6.00 Build 0)  -->
<svg version="1.1" xmlns="http://www.w3.org/2000/svg" xmlns:xlink="http://www.w3.org/1999/xlink" x="0px" y="0px"
	 viewBox="0 0 2200 2200" style="enable-background:new 0 0 2200 2200;" xml:space="preserve">
<g id="background">
	<rect style="fill:#FFFFFF;" width="2200" height="2200"/>
</g>
<g id="Objects">
	<g>
		<linearGradient id="SVGID_1_" gradientUnits="userSpaceOnUse" x1="1100" y1="382.6557" x2="1100" y2="1862.5167">
			<stop  offset="0" style="stop-color:#FF7B08"/>
			<stop  offset="1" style="stop-color:#CF0606"/>
		</linearGradient>
		<path style="fill:url(#SVGID_1_);" d="M1609.63,1647.19c-32.78,66.09-132.68,186.33-297.78,259.49
			c224.61-184.25-101.99-395.33,39.42-503.87c-36.96-8.21-78.06,17.83-86.41,54.75c-5.33,23.58,1.34,48.01,2.44,72.15
			c1.55,34.06-8.92,69.33-32.23,94.2c-23.31,24.87-60.09,37.73-92.98,28.76c-32.88-8.98-58.93-41.52-56.69-75.53
			c1.89-28.72,21.35-52.67,35.64-77.65c32.7-57.18,39.59-128.49,18.45-190.87c-21.15-62.39-69.98-114.81-130.71-140.32
			c41.52,95.21,30.37,211.49-28.47,297.08c-42.66,62.06-107.94,108.36-139.38,176.79c-23.72,51.62-25.21,113.02-4.01,165.72
			c13.5,33.56,36.06,63.29,64.32,85.84c-99.9-34-199.11-101.49-257.79-186.93c-60.98-88.8-90.52-198.04-82.46-304.89
			c7.06-93.47,41.72-183.38,48.3-276.89c6.59-93.5-24.76-200.28-110.34-241.57c66.64-21.55,147.18,23.43,162.51,90.73
			c6.3,27.69,2.8,56.54,5.15,84.82c2.36,28.27,12.63,58.65,37.49,73.05c33.54,19.45,80.06-1.23,97.97-35.22
			c17.92-33.99,13.1-75.53,0.14-111.63c-12.96-36.1-33.38-69.24-46.68-105.21c-28.48-77.03-21.8-165.9,17.89-237.97
			c33.45-60.74,87.62-107.76,127.42-164.69c37.56-53.72,61.46-125.29,35.48-184.01c64.34,5.55,128.62,24.74,176.89,66.41
			c53.57,46.23,82.3,124.36,55.73,189.4c-17.93,43.91-56.84,75.58-85.67,113.44c-34.11,44.8-54.57,101.73-46.2,157.06
			c8.38,55.34,49.41,107.12,104.84,119.77c55.43,12.66,120.3-22.06,131.57-76.91c9.3-45.19-16.02-90.66-14.57-136.76
			c2.2-69.57,76.56-127.89,146.04-114.5c-35.01,2.52-59.8,39.27-58.89,73.77c0.91,34.5,21.22,65.7,44.85,91.22
			c23.62,25.53,51.28,47.53,72.24,75.21c44.81,59.16,53.84,141.18,28.34,210.54c-12.6,34.25-33.05,65.26-58.8,91.44
			c-28.56,29.03-12.05,78.25,28.72,83.18c0.63,0.08,1.26,0.14,1.89,0.2c26.13,2.26,50.57-13.61,68.27-32.65
			c17.71-19.03,31.08-41.73,49.65-59.96c31.02-30.45,76.2-46.38,119.83-42.25C1515.55,1174.85,1723.18,1418.16,1609.63,1647.19z"/>
	</g>
</g>
</svg>
